<svg width="17" height="20" viewBox="0 0 17 20" fill="none" xmlns="http://www.w3.org/2000/svg">
<path fill-rule="evenodd" clip-rule="evenodd" d="M14.5 4.18685H2.5C1.80964 4.18685 1.25 4.71766 1.25 5.37245V17.347C1.25 18.0018 1.80964 18.5326 2.5 18.5326H14.5C15.1904 18.5326 15.75 18.0018 15.75 17.347V5.37245C15.75 4.71766 15.1904 4.18685 14.5 4.18685ZM2.5 3.00125C1.11929 3.00125 0 4.06287 0 5.37245V17.347C0 18.6566 1.11929 19.7182 2.5 19.7182H14.5C15.8807 19.7182 17 18.6566 17 17.347V5.37245C17 4.06287 15.8807 3.00125 14.5 3.00125H2.5Z" fill="#00B8CC"/>
<path d="M4.375 1.5787C4.375 1.25131 4.65482 0.985901 5 0.985901C5.34518 0.985901 5.625 1.25131 5.625 1.5787V5.1355C5.625 5.46289 5.34518 5.72829 5 5.72829C4.65482 5.72829 4.375 5.46289 4.375 5.1355V1.5787Z" fill="#00B8CC"/>
<path d="M11.375 1.5787C11.375 1.25131 11.6548 0.985901 12 0.985901C12.3452 0.985901 12.625 1.25131 12.625 1.5787V5.1355C12.625 5.46289 12.3452 5.72829 12 5.72829C11.6548 5.72829 11.375 5.46289 11.375 5.1355V1.5787Z" fill="#00B8CC"/>
<path d="M0.875 5.96537C0.875 4.6558 1.99429 3.59418 3.375 3.59418H13.625C15.0057 3.59418 16.125 4.6558 16.125 5.96537V9.64073H0.875V5.96537Z" fill="#00B8CC"/>
</svg>
