<svg width="1105" height="145" viewBox="0 0 1105 145" fill="none" xmlns="http://www.w3.org/2000/svg">
<g clip-path="url(#clip0_444_80)">
<path d="M595.51 92C595.51 114 582.51 145 543.51 145C504.51 145 491.51 114 491.51 92C491.51 70 504.51 39 543.51 39C582.51 39 595.51 70 595.51 92ZM509.51 92C509.51 108.53 514.51 138 543.51 138C572.51 138 577.51 109 577.51 92C577.51 75 572.51 46 543.51 46C514.51 46 509.51 75.47 509.51 92Z" fill="white"/>
<path d="M639.51 96.95C639.51 113.48 639.31 138 668.31 138C697.31 138 700.51 115.75 700.51 97.17V42H707.51V97.17C707.51 120.86 703.61 145 664.61 145C625.61 145 621.51 118.95 621.51 96.95V42H639.51V96.95Z" fill="white"/>
<path d="M987.51 49H936.51V85H981.51V92H936.51V135H989.51V142H919.51V42H987.51V49Z" fill="white"/>
<path d="M862.51 142V42H879.51V142H862.51Z" fill="white"/>
<path d="M1070.51 100C1072.51 100 1100.51 98 1100.51 71C1100.51 57 1091.51 42 1059.51 42H1023.51V142H1040.51V49H1059.51C1074.51 49 1083.51 59 1083.51 71C1083.51 83 1076.51 94 1058.51 94H1048.51L1085.51 142H1104.51L1070.51 100Z" fill="white"/>
<path d="M792.51 100C794.51 100 822.51 98 822.51 71C822.51 57 813.51 42 781.51 42H745.51V142H762.51V49H781.51C796.51 49 805.51 59 805.51 71C805.51 83 798.51 94 780.51 94H770.51L807.51 142H826.51L792.51 100Z" fill="white"/>
<path d="M15 114C15 122 19.49 138 39 138C52 138 61 131 61 121C61 107 46.02 103.01 35 99C24 95 1 89 1 68C1 60 6 40 38 40C60 40 73 52 73 68H59C59 61 54 46 37 46C25 46 17 53 17 62C17 76 34 81 45 85C56 89 77 95 77 115C77 140 52 144 38 144C3 144 0 121 0 114H15Z" fill="white"/>
<path d="M149 86L199 142H178L133 92L183 42H195L149 86Z" fill="white"/>
<path d="M269 99V142H252V101L215 42H234L265 92L296 42H307L269 99Z" fill="white"/>
<path d="M130 42H113V142H130V42Z" fill="white"/>
<path d="M449.81 109.38C449.81 123.81 443.43 138 423.61 138C397.95 138 395 108.53 395 92C395 75.47 397.96 46 423.61 46C443.43 46 449.81 59.05 449.81 74.62H465.51C465.51 56.28 451.44 39 423.62 39C386.83 39 377.01 70 377.01 92C377.01 114 386.84 145 423.62 145C450.91 145 465.51 127.63 465.51 109.38H449.81Z" fill="white"/>
</g>
<defs>
<clipPath id="clip0_444_80">
<rect width="1104.51" height="393" fill="white" transform="translate(0 -248)"/>
</clipPath>
</defs>
</svg>
