<?xml version="1.0" encoding="UTF-8"?><svg xmlns="http://www.w3.org/2000/svg" viewBox="0 0 1104.51 393"><defs><style>.d{fill:#fff;}</style></defs><g id="a"/><g id="b"><g id="c"><g><path class="d" d="M507.35,91.53c-2.83,4.42-5.28,9.14-7.29,14.11l36.92,4.71c.7-2.45,1.87-4.69,3.42-6.63-8.34-8.22-20.77-10.62-33.05-12.18Z"/><path class="d" d="M516.21,80.16c11.02,1.41,24.34,7.06,31.92,17.78,2.2-.89,4.59-1.39,7.11-1.39,10.33,0,18.72,8.25,18.97,18.52l84.38,10.76c-5.72-35.97-33.98-65.28-71.3-70.04-4.28-.55-8.53-.73-12.72-.61-.47,12.06-6.36,21.14-12.32,24.36l.32-3.58c2.64-29.52-17.83-55.88-46.61-60.01L404.93,0c5.38,13.11,26.54,19.72,36.11,21.84l76.55,17.02-76.78-5.21c6.28,12.6,23.91,16.42,33.3,18.51l49.5,9.21h-49.69c9.14,13.01,25.56,16.67,34.82,17.84l7.47,.95Z"/><path class="d" d="M555.23,134.56c-7.9,0-14.67-4.83-17.54-11.69l-1.17-.15-25.01-3.19-29.47,70.91,60.85,21.71-8.41-55.22c10.73,30.48,28.97,52.19,67.78,63.08l13-40.27,20.93,2.67,5.89-46.22-71.75-9.15c-3.47,4.57-8.94,7.53-15.12,7.53Z"/></g><g><path class="d" d="M595.51,340c0,22-13,53-52,53s-52-31-52-53,13-53,52-53,52,31,52,53Zm-86,0c0,16.53,5,46,34,46s34-29,34-46-5-46-34-46-34,29.47-34,46Z"/><path class="d" d="M639.51,344.95c0,16.53-.2,41.05,28.8,41.05s32.2-22.25,32.2-40.83v-55.17h7v55.17c0,23.69-3.9,47.83-42.9,47.83s-43.1-26.05-43.1-48.05v-54.95h18v54.95Z"/><path class="d" d="M987.51,297h-51v36h45v7h-45v43h53v7h-70v-100h68v7Z"/><path class="d" d="M862.51,390v-100h17v100h-17Z"/><path class="d" d="M1070.51,348c2,0,30-2,30-29,0-14-9-29-41-29h-36v100h17v-93h19c15,0,24,10,24,22s-7,23-25,23h-10l37,48h19l-34-42Z"/><path class="d" d="M792.51,348c2,0,30-2,30-29,0-14-9-29-41-29h-36v100h17v-93h19c15,0,24,10,24,22s-7,23-25,23h-10l37,48h19l-34-42Z"/><g><path class="d" d="M15,362c0,8,4.49,24,24,24,13,0,22-7,22-17,0-14-14.98-17.99-26-22-11-4-34-10-34-31,0-8,5-28,37-28,22,0,35,12,35,28h-14c0-7-5-22-22-22-12,0-20,7-20,16,0,14,17,19,28,23s32,10,32,30c0,25-25,29-39,29-35,0-38-23-38-30H15Z"/><polygon class="d" points="149 334 199 390 178 390 133 340 183 290 195 290 149 334"/><path class="d" d="M269,347v43h-17v-41l-37-59h19l31,50,31-50h11l-38,57Z"/><rect class="d" x="113" y="290" width="17" height="100"/></g><path class="d" d="M449.81,357.38c0,14.43-6.38,28.62-26.2,28.62-25.66,0-28.61-29.47-28.61-46s2.96-46,28.61-46c19.82,0,26.2,13.05,26.2,28.62h15.7c0-18.34-14.07-35.62-41.89-35.62-36.79,0-46.61,31-46.61,53s9.83,53,46.61,53c27.29,0,41.89-17.37,41.89-35.62h-15.7Z"/></g></g></g></svg>